<?xml version="1.0" standalone="no"?>
<!DOCTYPE svg PUBLIC "-//W3C//DTD SVG 20010904//EN"
 "http://www.w3.org/TR/2001/REC-SVG-20010904/DTD/svg10.dtd">
<svg version="1.0" xmlns="http://www.w3.org/2000/svg"
 width="472.000000pt" height="471.000000pt" viewBox="0 0 472.000000 471.000000"
 preserveAspectRatio="xMidYMid meet">
<metadata>
Created by potrace 1.15, written by Peter Selinger 2001-2017
</metadata>
<g transform="translate(0.000000,471.000000) scale(0.100000,-0.100000)"
fill="#000000" stroke="none">
<path d="M890 2817 l0 -1417 90 0 90 0 0 565 0 565 633 0 632 0 560 -560 560
-560 130 0 130 0 -560 560 -560 560 150 0 150 0 407 -407 408 -408 0 130 0
130 -277 277 -278 278 278 0 277 0 0 90 0 90 -368 0 -367 0 -670 670 -670 670
1038 0 1037 0 0 90 0 90 -1257 0 -1258 0 760 -760 760 -760 -150 0 -150 0
-762 762 -763 763 0 -1418z m725 433 l540 -540 -543 0 -542 0 0 540 c0 297 1
540 3 540 1 0 245 -243 542 -540z"/>
<path d="M1006 1142 c-18 -29 -176 -405 -172 -409 3 -3 16 -3 28 0 19 5 36 36
93 167 38 88 72 157 75 153 4 -5 37 -79 75 -165 60 -140 71 -158 91 -158 13 0
24 3 24 8 0 4 -39 98 -87 210 -65 149 -92 202 -105 202 -9 0 -19 -4 -22 -8z"/>
<path d="M1290 940 c0 -202 1 -210 20 -210 18 0 20 8 22 93 l3 92 78 3 c74 3
77 4 77 27 0 23 -3 24 -77 27 l-78 3 -3 62 -3 62 103 3 c98 3 103 4 106 26 3
22 2 22 -122 22 l-126 0 0 -210z"/>
<path d="M1654 962 c-105 -243 -103 -234 -69 -230 23 3 33 19 97 166 39 89 72
161 74 159 2 -2 35 -75 73 -163 63 -145 71 -159 96 -162 33 -4 40 -27 -68 225
-67 158 -86 192 -102 193 -16 0 -34 -34 -101 -188z"/>
<path d="M2012 943 c3 -206 3 -208 25 -211 22 -3 23 -2 25 156 l3 159 110
-158 c70 -101 116 -158 128 -159 16 0 17 17 17 210 l0 210 -25 0 -24 0 -3
-151 -3 -152 -105 152 c-83 120 -109 151 -127 151 l-23 0 2 -207z"/>
<path d="M2442 943 l3 -208 75 -2 c91 -3 139 9 180 43 50 43 64 79 65 170 0
72 -3 85 -28 123 -45 68 -75 81 -195 81 l-102 0 2 -207z m215 142 c32 -21 63
-89 63 -140 0 -58 -37 -126 -80 -147 -20 -10 -58 -18 -87 -18 l-53 0 0 163 0
162 66 -2 c41 -1 76 -9 91 -18z"/>
<path d="M2860 939 l0 -210 23 3 c22 3 22 4 25 211 l2 207 -25 0 -25 0 0 -211z"/>
<path d="M3012 943 c3 -206 3 -208 25 -211 22 -3 23 -2 25 156 l3 160 90 -131
c108 -157 132 -187 151 -187 12 0 14 36 14 210 l0 210 -25 0 -24 0 -3 -152 -3
-151 -105 151 c-83 120 -110 152 -128 152 l-22 0 2 -207z"/>
<path d="M3477 953 c-48 -109 -87 -204 -87 -211 0 -16 35 -16 47 1 5 6 36 73
68 147 32 74 62 143 67 154 8 15 23 -11 79 -140 38 -87 73 -162 78 -167 5 -5
18 -7 29 -5 20 3 15 18 -67 208 -69 158 -93 206 -108 208 -17 3 -33 -27 -106
-195z"/>
<path d="M855 565 c-71 -70 31 -187 113 -129 23 16 29 34 11 34 -6 0 -17 -7
-25 -15 -24 -23 -60 -18 -84 12 -22 28 -21 63 2 90 15 18 68 16 90 -4 25 -22
36 -8 13 17 -27 29 -89 27 -120 -5z"/>
<path d="M1239 563 c-27 -69 -49 -137 -45 -141 8 -7 26 9 26 24 0 10 12 14 39
14 31 0 41 -4 46 -20 3 -11 13 -20 21 -20 11 0 10 9 -5 48 -10 26 -24 64 -30
85 -15 44 -37 48 -52 10z m47 -80 c-2 -2 -15 -3 -29 -1 -25 3 -25 3 -10 38
l15 35 15 -34 c8 -18 12 -35 9 -38z"/>
<path d="M1530 505 c0 -69 3 -85 15 -85 10 0 15 11 15 35 0 22 5 35 13 35 7 0
21 -16 31 -35 11 -19 26 -35 34 -35 11 0 9 8 -7 36 l-22 37 21 14 c46 33 13
83 -56 83 l-44 0 0 -85z m93 53 c8 -22 -13 -48 -38 -48 -21 0 -25 5 -25 30 0
26 3 30 29 30 16 0 31 -6 34 -12z"/>
<path d="M2090 505 c0 -50 4 -85 10 -85 6 0 10 16 10 35 0 24 5 35 14 35 8 0
24 -16 36 -35 12 -19 26 -35 31 -35 13 0 11 8 -8 42 -17 28 -17 30 0 39 20 11
23 59 5 77 -7 7 -31 12 -55 12 l-43 0 0 -85z m85 35 c0 -21 -5 -26 -32 -28
-31 -3 -33 -1 -33 28 0 29 2 31 33 28 27 -2 32 -7 32 -28z"/>
<path d="M2410 505 l0 -85 45 0 c25 0 45 5 45 10 0 6 -16 10 -35 10 -32 0 -35
2 -35 30 0 27 3 30 30 30 17 0 30 5 30 10 0 6 -13 10 -30 10 -25 0 -30 4 -30
25 0 22 4 25 35 25 19 0 35 5 35 10 0 6 -20 10 -45 10 l-45 0 0 -85z"/>
<path d="M2708 588 c0 -2 -2 -40 -3 -85 -1 -63 2 -83 12 -83 9 0 13 18 13 68
l1 67 42 -67 c23 -37 48 -67 55 -68 9 0 12 23 12 85 0 50 -4 85 -10 85 -6 0
-10 -29 -10 -67 l0 -68 -45 68 c-38 57 -59 77 -67 65z"/>
<path d="M3040 580 c0 -5 9 -10 20 -10 18 0 20 -7 20 -75 0 -60 3 -75 15 -75
12 0 15 15 15 75 0 68 2 75 20 75 11 0 20 5 20 10 0 6 -25 10 -55 10 -30 0
-55 -4 -55 -10z"/>
<path d="M3384 543 c-9 -27 -23 -63 -31 -82 -16 -41 -16 -41 1 -41 7 0 16 9
19 20 4 15 14 20 42 20 28 0 38 -5 42 -20 3 -11 12 -20 19 -20 10 0 6 20 -16
82 -17 45 -30 83 -30 85 0 2 -6 3 -14 3 -8 0 -22 -21 -32 -47z m56 -54 c0 -5
-11 -9 -25 -9 -28 0 -29 4 -14 50 l12 32 13 -32 c8 -18 14 -36 14 -41z"/>
<path d="M3690 505 l0 -85 40 0 c22 0 40 5 40 10 0 6 -13 10 -30 10 l-30 0 0
75 c0 43 -4 75 -10 75 -6 0 -10 -35 -10 -85z"/>
</g>
</svg>
